<svg xmlns="http://www.w3.org/2000/svg" viewBox="0 0 122 32"><path d="M114.2 31.7h1.7v-4.5c0-.4.1-.9.2-1.3.1-.3.3-.7.5-.9.2-.2.5-.4.8-.5.3-.1.6-.2 1-.2.3 0 .5 0 .8.1.2.1.5.2.6.4.2.2.4.4.4.7.1.3.2.7.2 1.1v5.2h1.7v-5.7c0-.5-.1-1-.3-1.5-.2-.4-.4-.8-.7-1.1-.3-.3-.6-.5-1-.6-.4-.1-.8-.2-1.2-.2-.6 0-1.3.1-1.8.4-.5.3-.9.7-1.1 1.1v-1.4h-1.7l-.1 8.9zm-11.1-2.6c.2.6.6 1 1 1.5 1.9 1.8 4.8 1.8 6.7 0 .4-.4.8-.9 1-1.5.2-.6.4-1.2.4-1.8 0-.6-.1-1.2-.4-1.8-.2-.5-.6-1-1-1.5-.9-.9-2.1-1.4-3.3-1.4-.6 0-1.3.1-1.8.4-.6.2-1.1.6-1.5 1-.4.4-.8.9-1 1.5-.2.6-.4 1.2-.4 1.8-.1.7 0 1.3.3 1.8m1.6-3c.1-.4.3-.7.6-1 .3-.3.6-.5.9-.6.8-.3 1.6-.3 2.4 0 .3.1.7.4.9.6.3.3.5.6.6 1 .3.8.3 1.7 0 2.5-.1.4-.3.7-.6 1-.3.3-.6.5-.9.6-.8.3-1.6.3-2.4 0-.3-.1-.7-.4-.9-.6-.3-.3-.4-.6-.6-1-.3-.8-.3-1.7 0-2.5m-5.9-5.5c.5.5 1.2.5 1.7 0s.5-1.3 0-1.7c-.5-.5-1.3-.5-1.7 0-.2.2-.4.5-.4.9 0 .3.1.6.4.8m0 11.1h1.7v-8.8h-1.7v8.8zm-2.3-8.8h-2.4v-2.5h-1.7v2.5h-1.9v1.5h1.9v5.7c0 .3.1.7.3 1 .2.3.5.5.8.7.5.2 1 .3 1.5.3.2 0 .5 0 .7-.1.3 0 .5-.1.8-.2v-1.5c-.2.1-.4.2-.6.2-.2 0-.4.1-.6.1-.3 0-.5 0-.7-.2-.2-.1-.3-.3-.4-.5-.1-.2-.1-.4-.1-.7v-4.7h2.4v-1.6zm-8.7 4.6v.6c0 .3 0 .6-.1.9-.1.3-.2.6-.4.8-.2.3-.5.5-.8.6-.4.2-.8.2-1.2.2-.5 0-1-.1-1.4-.3-.4-.2-.5-.7-.5-1.1 0-.3.1-.6.3-.9.2-.2.5-.4.8-.5.4-.1.7-.2 1.1-.3.4 0 .8-.1 1.2-.1l1 .1zM83.2 25l.5-.4c.2-.1.3-.2.5-.3.2-.1.4-.2.7-.2.3-.1.6-.1.8-.1.3 0 .6 0 .9.2.2.1.5.2.7.4.2.2.3.4.4.6.1.2.1.4.1.7v.4h-1.2c-.6 0-1.3 0-1.9.2-.5.1-1 .3-1.5.5-.4.2-.8.5-1 .9-.3.4-.4.9-.4 1.4 0 .4.1.8.2 1.1.2.3.4.6.7.8.3.2.6.4 1 .5.4.1.8.2 1.2.2.6 0 1.2-.1 1.8-.4.5-.3 1-.7 1.3-1.2 0 .4 0 .9.1 1.3h1.5c0-.2 0-.5-.1-.7v-5.4c0-.4-.1-.8-.2-1.1-.1-.4-.4-.7-.7-.9-.3-.3-.7-.5-1.1-.7-.5-.2-1.1-.3-1.7-.2-.6 0-1.3.1-1.9.3-.6.2-1.2.5-1.6 1l.9 1.1zm-7.9 6.7h1.8l3.5-8.8h-1.8l-2.5 6.8-2.6-6.8h-1.9l3.5 8.8zm-13.6-2.6c.2.6.6 1 1 1.5 1.9 1.8 4.8 1.8 6.7 0 .4-.4.8-.9 1-1.5.2-.6.4-1.2.4-1.8 0-.6-.1-1.2-.4-1.8-.2-.5-.6-1-1-1.5-.9-.9-2.1-1.4-3.3-1.4-.6 0-1.3.1-1.8.4-.6.2-1.1.6-1.5 1-.4.4-.8.9-1 1.5-.2.6-.4 1.2-.4 1.8-.1.7 0 1.3.3 1.8m1.6-3c.1-.4.3-.7.6-1 .3-.3.6-.5.9-.6.8-.3 1.6-.3 2.4 0 .3.1.7.4.9.6.3.3.5.6.6 1 .3.8.3 1.7 0 2.5-.1.4-.3.7-.6 1-.3.3-.6.5-.9.6-.8.3-1.6.3-2.4 0-.3-.1-.7-.4-.9-.6-.3-.3-.4-.6-.6-1-.3-.8-.3-1.7 0-2.5m-11.9 5.7h1.7v-4.5c0-.4.1-.9.2-1.3.1-.3.3-.7.5-.9.2-.2.5-.4.8-.5.3-.1.6-.2 1-.2.3 0 .5 0 .8.1.2.1.5.2.6.4.2.2.4.4.4.7.1.3.2.7.2 1.1v5.2h1.7v-5.7c0-.5-.1-1-.3-1.5-.2-.4-.4-.8-.7-1.1-.3-.3-.6-.5-1-.6-.4-.1-.8-.2-1.2-.2-.6 0-1.3.1-1.8.4-.5.3-.9.7-1.1 1.1v-1.4h-1.7l-.1 8.9zm-10.3 0h1.7v-4.5c0-.4.1-.9.2-1.3.1-.3.3-.7.5-.9.2-.2.5-.4.8-.5.3-.1.6-.2 1-.2.3 0 .5 0 .8.1.2.1.5.2.6.4.2.2.4.4.4.7.1.3.2.7.2 1.1v5.2H49v-5.7c0-.5-.1-1-.3-1.5-.2-.4-.4-.8-.7-1.1-.3-.3-.6-.5-1-.6-.4-.1-.8-.2-1.2-.2-.6 0-1.2.1-1.8.4-.5.3-.9.7-1.1 1.1v-1.4h-1.7l-.1 8.9zm-4.8 0h1.8V18.6h-1.8v13.2zm-12.8-1.6c-.3-.1-.7-.4-.9-.6-.3-.3-.5-.6-.6-1-.3-.8-.3-1.7 0-2.5.1-.4.3-.7.6-1 .3-.3.6-.5.9-.6.8-.3 1.6-.3 2.4 0 .3.1.7.4.9.6.3.3.5.6.6 1 .3.8.3 1.7 0 2.5-.1.4-.3.7-.6 1-.3.3-.6.5-.9.6-.7.3-1.6.3-2.4 0m5.8-12.5h-1.7v6.5c-.3-.5-.8-.9-1.3-1.1-.6-.3-1.2-.4-1.8-.4-.6 0-1.3.1-1.8.4-.5.2-1 .6-1.4 1-.4.4-.7.9-.9 1.5-.4 1.2-.4 2.5 0 3.7.2.5.5 1 .9 1.5.4.4.9.8 1.4 1 .6.2 1.2.4 1.8.4.6 0 1.2-.1 1.7-.4.5-.2 1-.6 1.3-1.1V32h1.6V17.7zm-19.2 14h1.7v-4.5c0-.4.1-.9.2-1.3.1-.3.3-.7.5-.9.2-.2.5-.4.8-.5.3-.1.6-.2 1-.2.3 0 .5 0 .8.1.2.1.5.2.6.4.2.2.4.4.4.7.1.3.2.7.2 1.1v5.2H18v-5.7c0-.5-.1-1-.3-1.5-.2-.4-.4-.8-.7-1.1-.3-.3-.6-.5-1-.6-.4-.1-.8-.2-1.2-.2-.6 0-1.2.1-1.8.4-.5.3-.9.7-1.1 1.1v-1.4h-1.7l-.1 8.9zm-4-4.2v.5c0 .3 0 .6-.1.9-.1.3-.2.6-.4.8-.2.3-.5.5-.8.6-.4.2-.8.2-1.2.2-.5 0-1-.1-1.4-.3-.4-.2-.5-.7-.5-1.1 0-.3.1-.6.3-.9.2-.2.5-.4.8-.5.4-.1.7-.2 1.1-.3.4 0 .8-.1 1.2-.1l1 .2zM1.5 25l.5-.3c.2-.1.3-.2.5-.3.2-.1.4-.2.7-.2.3-.1.5-.2.8-.2.3 0 .6 0 .9.2.2.1.5.2.7.4.2.2.3.4.4.6.1.2.1.4.1.7v.4H4.9c-.6 0-1.3 0-1.9.2-.5.1-1.1.3-1.5.5-.4.2-.8.5-1 .9-.5.8-.5 1.7-.2 2.5.2.3.4.6.7.8.3.2.6.4 1 .5.4.1.8.2 1.2.2.6 0 1.2-.1 1.8-.4.5-.3 1-.7 1.3-1.2 0 .4 0 .9.1 1.3h1.5c0-.2 0-.5-.1-.7v-5.4c0-.4-.1-.8-.2-1.1-.1-.4-.4-.7-.7-.9-.3-.3-.7-.5-1.1-.7-.5-.2-1.1-.3-1.7-.2-.6 0-1.3.1-1.9.3-.6.2-1.2.5-1.6 1l.9 1.1zm92.9-10.7h1.7V9.7c0-.4.1-.9.2-1.3.1-.3.3-.7.5-.9.2-.2.5-.4.8-.5.3-.1.6-.2 1-.2.3 0 .5 0 .8.1.2.1.5.2.6.4.2.2.4.4.4.7.1.3.2.7.2 1.1v5.2h1.7V8.6c0-.5-.1-1-.3-1.5-.2-.4-.4-.8-.7-1.1-.3-.3-.6-.5-1-.6-.4-.1-.8-.2-1.2-.2-.6 0-1.3.1-1.8.4-.5.2-.9.7-1.1 1.1V.2h-1.7l-.1 14.1zm-1.3-7.6c-.4-.5-.9-.8-1.5-1.1-.6-.2-1.2-.3-1.8-.3-.6 0-1.3.1-1.9.3-.5.2-1 .5-1.5 1-.5.4-.8.9-1 1.4-.2.6-.3 1.2-.3 1.9 0 .6.1 1.3.3 1.9.2.5.5 1 .9 1.4.4.4.9.7 1.5.9.6.2 1.2.3 1.9.3.6 0 1.2-.1 1.8-.3.6-.2 1.1-.6 1.5-1L91.9 12c-.3.3-.6.6-.9.7-.4.2-.8.3-1.2.2-.4 0-.8-.1-1.2-.2l-.9-.6c-.3-.3-.5-.6-.6-1-.1-.4-.2-.8-.2-1.2 0-.4.1-.8.2-1.2.1-.4.3-.7.5-1 .2-.3.5-.5.9-.7.4-.2.8-.3 1.2-.3.4 0 .8.1 1.2.3.4.2.7.4 1 .7l1.2-1zm-14.2 7.6h1.7V9.8c-.1-.8.2-1.5.7-2.1.5-.5 1.2-.7 1.9-.7h.4l.4.1V5.3c-.2-.1-.5-.1-.7-.1-.3 0-.6 0-.8.1-.3.1-.5.2-.8.3-.2.1-.4.3-.6.5-.2.2-.3.4-.4.6V5.5H79l-.1 8.8zm-4-4.3v.6c0 .3 0 .6-.1.9-.1.3-.2.6-.4.8-.2.3-.5.5-.8.6-.4.2-.8.2-1.2.2-.5 0-1-.1-1.4-.3-.4-.2-.5-.7-.5-1.1 0-.3.1-.6.3-.9.2-.2.5-.4.8-.5.4-.1.7-.2 1.1-.2.4 0 .8-.1 1.2-.1h1zm-4.6-2.4l.5-.4c.2-.1.3-.2.5-.3.2-.1.4-.2.7-.3.3-.1.6-.1.8-.1.3 0 .6 0 .9.2.3.1.5.3.7.5.2.2.3.4.4.6.1.2.1.4.1.7v.4h-1.2c-.6 0-1.3.1-1.9.2-.5.1-1 .3-1.5.5-.4.2-.8.5-1 .9-.3.4-.4.9-.4 1.4 0 .4.1.8.2 1.1.2.3.4.6.7.8.3.2.6.4 1 .5.4.1.8.2 1.2.2.6 0 1.2-.1 1.8-.4.5-.3 1-.7 1.3-1.2 0 .4 0 .9.1 1.3h1.5c0-.2 0-.5-.1-.7s0-.5 0-.9V8.2c0-.4-.1-.8-.2-1.1-.1-.4-.4-.7-.7-.9-.3-.3-.7-.5-1.1-.7-.5-.2-1.1-.2-1.7-.2-.6 0-1.3.1-1.9.3-.6.2-1.2.5-1.6 1l.9 1zM60.2 9.1c0-.3.1-.6.2-.9.1-.3.3-.6.5-.8.2-.3.5-.5.9-.6.4-.2.7-.2 1.1-.2.4 0 .8.1 1.1.2.3.1.6.3.8.5.2.2.4.5.5.8.1.3.2.7.2 1h-5.3zm7.1 1.4v-.6c0-.6-.1-1.1-.2-1.7-.2-.5-.4-1-.8-1.5-.4-.4-.8-.8-1.3-1.1-.6-.3-1.3-.4-2-.4-.6 0-1.2.1-1.8.4-.5.2-1 .6-1.4 1-.5.4-.8.9-1 1.4-.2.6-.4 1.2-.3 1.8 0 .6.1 1.2.3 1.8.2.5.5 1 .9 1.5.4.4.9.8 1.4 1 .6.2 1.2.4 1.9.4 1.5.1 3-.6 3.9-1.8l-1.3-1c-.3.4-.7.7-1.1 1-.4.2-.9.4-1.4.4-.4 0-.8-.1-1.1-.2-.3-.1-.7-.3-.9-.5-.3-.2-.5-.5-.7-.8-.2-.3-.3-.7-.3-1.1h7.2zM56.7 6.7c-.3-.5-.8-.9-1.3-1.1-.5-.2-1.1-.3-1.7-.3-.4 0-.8.1-1.2.2-.4.1-.8.3-1.1.5-.3.2-.6.5-.8.8-.2.4-.3.8-.3 1.2 0 .4.1.7.2 1.1.1.3.3.5.6.7.3.2.5.3.9.4.3.1.7.2 1 .3l.6.1c.2.1.5.1.7.2.2.1.4.2.6.4.2.2.2.4.2.6 0 .2-.1.4-.2.5l-.4.4c-.2.1-.4.2-.6.2-.2 0-.4.1-.6.1-.4 0-.9-.1-1.2-.3-.3-.2-.6-.4-.9-.7l-1.3 1c.4.5.9 1 1.5 1.2.6.2 1.3.3 1.9.3.4 0 .9 0 1.3-.1s.8-.3 1.1-.5c.3-.2.6-.5.8-.8.2-.4.3-.8.3-1.3 0-.3-.1-.7-.2-1-.1-.3-.3-.5-.5-.8-.2-.2-.5-.4-.8-.5-.3-.1-.7-.2-1-.3l-.6-.2c-.3 0-.5-.1-.7-.2-.2-.1-.4-.2-.6-.4-.2-.2-.3-.4-.3-.6 0-.3.2-.6.4-.7.3-.2.7-.3 1-.2.4 0 .7.1 1.1.2.3.2.5.4.7.6l1.4-1zM41.6 9.1c0-.3.1-.6.2-.9.1-.3.3-.6.5-.8.2-.3.5-.5.9-.6.4-.2.7-.2 1.1-.2.4 0 .8.1 1.1.2.3.1.6.3.8.5.2.2.4.5.5.8.1.3.2.7.2 1h-5.3zm7.1 1.4v-.6c0-.6-.1-1.1-.2-1.7-.2-.5-.4-1-.8-1.5s-.8-.8-1.3-1.1c-.6-.3-1.3-.4-2-.4-.6 0-1.2.1-1.8.4-.5.2-1 .6-1.4 1-.5.4-.8.9-1.1 1.4-.2.6-.4 1.2-.3 1.8 0 .6.1 1.2.3 1.8.2.5.5 1 .9 1.5.4.4.9.8 1.4 1 .6.2 1.2.4 1.9.4 1.5.1 3-.6 3.9-1.8l-1.3-1c-.3.4-.7.7-1.1 1-.4.2-.9.4-1.4.4-.4 0-.8-.1-1.1-.2-.3-.1-.7-.3-.9-.5-.3-.2-.5-.5-.7-.8-.2-.3-.3-.7-.3-1.1h7.3zM31.5 2.7h2.3c.3 0 .7 0 1 .1.3 0 .6.2.9.3.3.2.5.4.6.6.3.7.3 1.5 0 2.2-.2.3-.4.5-.6.6-.3.2-.6.3-.9.3-.3.1-.7.1-1 .1h-2.3V2.7zm-1.7 11.6h1.8V8.5h2l3.3 5.8h2.2l-3.7-6c.5 0 .9-.2 1.3-.4s.7-.5 1-.8c.6-.6.9-1.4.9-2.3 0-.4-.1-.9-.2-1.3s-.3-.9-.7-1.2c-.4-.4-.8-.7-1.3-.9-.7-.2-1.4-.4-2.1-.3h-4.6l.1 13.2zm-15.8 0h1.8V7.7h.1l6.1 6.6h2.6l-6.8-7.1 6.4-6.1h-2.5l-5.8 5.7h-.1V1.1H14v13.2zM.7 1.1v8.4c0 .7.1 1.4.4 2.1.2.6.6 1.2 1.1 1.6.5.5 1 .8 1.6 1.1 1.3.5 2.7.5 4 0 .6-.2 1.2-.6 1.6-1.1.5-.5.8-1 1.1-1.6.3-.7.4-1.4.4-2.1V1.1H9.1v8.1c0 .4-.1.9-.2 1.3s-.3.9-.6 1.2c-.3.4-.6.7-1 .9-1 .5-2.1.5-3.1 0-.4-.2-.8-.5-1-.9-.3-.4-.5-.8-.6-1.2-.1-.5-.1-.9-.1-1.3V1.1H.7z" fill="#727272"/></svg>